<?xml version="1.0" encoding="utf-8" standalone="no"?>
<!DOCTYPE svg PUBLIC "-//W3C//DTD SVG 1.1//EN"
  "http://www.w3.org/Graphics/SVG/1.1/DTD/svg11.dtd">
<svg xmlns:xlink="http://www.w3.org/1999/xlink" width="432pt" height="360pt" viewBox="0 0 432 360" xmlns="http://www.w3.org/2000/svg" version="1.1">
 <metadata>
  <rdf:RDF xmlns:dc="http://purl.org/dc/elements/1.1/" xmlns:cc="http://creativecommons.org/ns#" xmlns:rdf="http://www.w3.org/1999/02/22-rdf-syntax-ns#">
   <cc:Work>
    <dc:type rdf:resource="http://purl.org/dc/dcmitype/StillImage"/>
    <dc:date>2023-07-07T03:38:21.484753</dc:date>
    <dc:format>image/svg+xml</dc:format>
    <dc:creator>
     <cc:Agent>
      <dc:title>Matplotlib v3.7.1, https://matplotlib.org/</dc:title>
     </cc:Agent>
    </dc:creator>
   </cc:Work>
  </rdf:RDF>
 </metadata>
 <defs>
  <style type="text/css">*{stroke-linejoin: round; stroke-linecap: butt}</style>
 </defs>
 <g id="figure_1">
  <g id="patch_1">
   <path d="M 0 360 
L 432 360 
L 432 0 
L 0 0 
z
" style="fill: #ffffff"/>
  </g>
  <g id="axes_1">
   <g id="patch_2">
    <path d="M 58.34 305.8 
L 364.93 305.8 
L 364.93 15.12 
L 58.34 15.12 
z
" style="fill: #ffffff"/>
   </g>
   <g id="patch_3">
    <path d="M 72.275909 305.8 
L 100.147727 305.8 
L 100.147727 294.726476 
L 72.275909 294.726476 
z
" clip-path="url(#pf54aaa3f9d)" style="fill: #9999ff"/>
   </g>
   <g id="patch_4">
    <path d="M 100.147727 305.8 
L 128.019545 305.8 
L 128.019545 261.505905 
L 100.147727 261.505905 
z
" clip-path="url(#pf54aaa3f9d)" style="fill: #9999ff"/>
   </g>
   <g id="patch_5">
    <path d="M 128.019545 305.8 
L 155.891364 305.8 
L 155.891364 139.697143 
L 128.019545 139.697143 
z
" clip-path="url(#pf54aaa3f9d)" style="fill: #9999ff"/>
   </g>
   <g id="patch_6">
    <path d="M 155.891364 305.8 
L 183.763182 305.8 
L 183.763182 67.719238 
L 155.891364 67.719238 
z
" clip-path="url(#pf54aaa3f9d)" style="fill: #9999ff"/>
   </g>
   <g id="patch_7">
    <path d="M 183.763182 305.8 
L 211.635 305.8 
L 211.635 28.961905 
L 183.763182 28.961905 
z
" clip-path="url(#pf54aaa3f9d)" style="fill: #9999ff"/>
   </g>
   <g id="patch_8">
    <path d="M 211.635 305.8 
L 239.506818 305.8 
L 239.506818 123.086857 
L 211.635 123.086857 
z
" clip-path="url(#pf54aaa3f9d)" style="fill: #9999ff"/>
   </g>
   <g id="patch_9">
    <path d="M 239.506818 305.8 
L 267.378636 305.8 
L 267.378636 189.528 
L 239.506818 189.528 
z
" clip-path="url(#pf54aaa3f9d)" style="fill: #9999ff"/>
   </g>
   <g id="patch_10">
    <path d="M 267.378636 305.8 
L 295.250455 305.8 
L 295.250455 267.042667 
L 267.378636 267.042667 
z
" clip-path="url(#pf54aaa3f9d)" style="fill: #9999ff"/>
   </g>
   <g id="patch_11">
    <path d="M 295.250455 305.8 
L 323.122273 305.8 
L 323.122273 289.189714 
L 295.250455 289.189714 
z
" clip-path="url(#pf54aaa3f9d)" style="fill: #9999ff"/>
   </g>
   <g id="patch_12">
    <path d="M 323.122273 305.8 
L 350.994091 305.8 
L 350.994091 289.189714 
L 323.122273 289.189714 
z
" clip-path="url(#pf54aaa3f9d)" style="fill: #9999ff"/>
   </g>
   <g id="matplotlib.axis_1">
    <g id="xtick_1">
     <g id="line2d_1">
      <defs>
       <path id="m4457ebc8f0" d="M 0 0 
L 0 3.5 
" style="stroke: #000000; stroke-width: 0.8"/>
      </defs>
      <g>
       <use xlink:href="#m4457ebc8f0" x="100.147727" y="305.8" style="stroke: #000000; stroke-width: 0.8"/>
      </g>
     </g>
     <g id="text_1">
      <!-- 50 -->
      <g transform="translate(91.240227 323.437813) scale(0.14 -0.14)">
       <defs>
        <path id="DejaVuSans-35" d="M 691 4666 
L 3169 4666 
L 3169 4134 
L 1269 4134 
L 1269 2991 
Q 1406 3038 1543 3061 
Q 1681 3084 1819 3084 
Q 2600 3084 3056 2656 
Q 3513 2228 3513 1497 
Q 3513 744 3044 326 
Q 2575 -91 1722 -91 
Q 1428 -91 1123 -41 
Q 819 9 494 109 
L 494 744 
Q 775 591 1075 516 
Q 1375 441 1709 441 
Q 2250 441 2565 725 
Q 2881 1009 2881 1497 
Q 2881 1984 2565 2268 
Q 2250 2553 1709 2553 
Q 1456 2553 1204 2497 
Q 953 2441 691 2322 
L 691 4666 
z
" transform="scale(0.015625)"/>
        <path id="DejaVuSans-30" d="M 2034 4250 
Q 1547 4250 1301 3770 
Q 1056 3291 1056 2328 
Q 1056 1369 1301 889 
Q 1547 409 2034 409 
Q 2525 409 2770 889 
Q 3016 1369 3016 2328 
Q 3016 3291 2770 3770 
Q 2525 4250 2034 4250 
z
M 2034 4750 
Q 2819 4750 3233 4129 
Q 3647 3509 3647 2328 
Q 3647 1150 3233 529 
Q 2819 -91 2034 -91 
Q 1250 -91 836 529 
Q 422 1150 422 2328 
Q 422 3509 836 4129 
Q 1250 4750 2034 4750 
z
" transform="scale(0.015625)"/>
       </defs>
       <use xlink:href="#DejaVuSans-35"/>
       <use xlink:href="#DejaVuSans-30" x="63.623047"/>
      </g>
     </g>
    </g>
    <g id="xtick_2">
     <g id="line2d_2">
      <g>
       <use xlink:href="#m4457ebc8f0" x="158.214015" y="305.8" style="stroke: #000000; stroke-width: 0.8"/>
      </g>
     </g>
     <g id="text_2">
      <!-- 100 -->
      <g transform="translate(144.852765 323.437813) scale(0.14 -0.14)">
       <defs>
        <path id="DejaVuSans-31" d="M 794 531 
L 1825 531 
L 1825 4091 
L 703 3866 
L 703 4441 
L 1819 4666 
L 2450 4666 
L 2450 531 
L 3481 531 
L 3481 0 
L 794 0 
L 794 531 
z
" transform="scale(0.015625)"/>
       </defs>
       <use xlink:href="#DejaVuSans-31"/>
       <use xlink:href="#DejaVuSans-30" x="63.623047"/>
       <use xlink:href="#DejaVuSans-30" x="127.246094"/>
      </g>
     </g>
    </g>
    <g id="xtick_3">
     <g id="line2d_3">
      <g>
       <use xlink:href="#m4457ebc8f0" x="216.280303" y="305.8" style="stroke: #000000; stroke-width: 0.8"/>
      </g>
     </g>
     <g id="text_3">
      <!-- 150 -->
      <g transform="translate(202.919053 323.437813) scale(0.14 -0.14)">
       <use xlink:href="#DejaVuSans-31"/>
       <use xlink:href="#DejaVuSans-35" x="63.623047"/>
       <use xlink:href="#DejaVuSans-30" x="127.246094"/>
      </g>
     </g>
    </g>
    <g id="xtick_4">
     <g id="line2d_4">
      <g>
       <use xlink:href="#m4457ebc8f0" x="274.346591" y="305.8" style="stroke: #000000; stroke-width: 0.8"/>
      </g>
     </g>
     <g id="text_4">
      <!-- 200 -->
      <g transform="translate(260.985341 323.437813) scale(0.14 -0.14)">
       <defs>
        <path id="DejaVuSans-32" d="M 1228 531 
L 3431 531 
L 3431 0 
L 469 0 
L 469 531 
Q 828 903 1448 1529 
Q 2069 2156 2228 2338 
Q 2531 2678 2651 2914 
Q 2772 3150 2772 3378 
Q 2772 3750 2511 3984 
Q 2250 4219 1831 4219 
Q 1534 4219 1204 4116 
Q 875 4013 500 3803 
L 500 4441 
Q 881 4594 1212 4672 
Q 1544 4750 1819 4750 
Q 2544 4750 2975 4387 
Q 3406 4025 3406 3419 
Q 3406 3131 3298 2873 
Q 3191 2616 2906 2266 
Q 2828 2175 2409 1742 
Q 1991 1309 1228 531 
z
" transform="scale(0.015625)"/>
       </defs>
       <use xlink:href="#DejaVuSans-32"/>
       <use xlink:href="#DejaVuSans-30" x="63.623047"/>
       <use xlink:href="#DejaVuSans-30" x="127.246094"/>
      </g>
     </g>
    </g>
    <g id="xtick_5">
     <g id="line2d_5">
      <g>
       <use xlink:href="#m4457ebc8f0" x="332.412879" y="305.8" style="stroke: #000000; stroke-width: 0.8"/>
      </g>
     </g>
     <g id="text_5">
      <!-- 250 -->
      <g transform="translate(319.051629 323.437813) scale(0.14 -0.14)">
       <use xlink:href="#DejaVuSans-32"/>
       <use xlink:href="#DejaVuSans-35" x="63.623047"/>
       <use xlink:href="#DejaVuSans-30" x="127.246094"/>
      </g>
     </g>
    </g>
    <g id="text_6">
     <!-- Volume -->
     <g transform="translate(181.88 342.506875) scale(0.16 -0.16)">
      <defs>
       <path id="DejaVuSans-56" d="M 1831 0 
L 50 4666 
L 709 4666 
L 2188 738 
L 3669 4666 
L 4325 4666 
L 2547 0 
L 1831 0 
z
" transform="scale(0.015625)"/>
       <path id="DejaVuSans-6f" d="M 1959 3097 
Q 1497 3097 1228 2736 
Q 959 2375 959 1747 
Q 959 1119 1226 758 
Q 1494 397 1959 397 
Q 2419 397 2687 759 
Q 2956 1122 2956 1747 
Q 2956 2369 2687 2733 
Q 2419 3097 1959 3097 
z
M 1959 3584 
Q 2709 3584 3137 3096 
Q 3566 2609 3566 1747 
Q 3566 888 3137 398 
Q 2709 -91 1959 -91 
Q 1206 -91 779 398 
Q 353 888 353 1747 
Q 353 2609 779 3096 
Q 1206 3584 1959 3584 
z
" transform="scale(0.015625)"/>
       <path id="DejaVuSans-6c" d="M 603 4863 
L 1178 4863 
L 1178 0 
L 603 0 
L 603 4863 
z
" transform="scale(0.015625)"/>
       <path id="DejaVuSans-75" d="M 544 1381 
L 544 3500 
L 1119 3500 
L 1119 1403 
Q 1119 906 1312 657 
Q 1506 409 1894 409 
Q 2359 409 2629 706 
Q 2900 1003 2900 1516 
L 2900 3500 
L 3475 3500 
L 3475 0 
L 2900 0 
L 2900 538 
Q 2691 219 2414 64 
Q 2138 -91 1772 -91 
Q 1169 -91 856 284 
Q 544 659 544 1381 
z
M 1991 3584 
L 1991 3584 
z
" transform="scale(0.015625)"/>
       <path id="DejaVuSans-6d" d="M 3328 2828 
Q 3544 3216 3844 3400 
Q 4144 3584 4550 3584 
Q 5097 3584 5394 3201 
Q 5691 2819 5691 2113 
L 5691 0 
L 5113 0 
L 5113 2094 
Q 5113 2597 4934 2840 
Q 4756 3084 4391 3084 
Q 3944 3084 3684 2787 
Q 3425 2491 3425 1978 
L 3425 0 
L 2847 0 
L 2847 2094 
Q 2847 2600 2669 2842 
Q 2491 3084 2119 3084 
Q 1678 3084 1418 2786 
Q 1159 2488 1159 1978 
L 1159 0 
L 581 0 
L 581 3500 
L 1159 3500 
L 1159 2956 
Q 1356 3278 1631 3431 
Q 1906 3584 2284 3584 
Q 2666 3584 2933 3390 
Q 3200 3197 3328 2828 
z
" transform="scale(0.015625)"/>
       <path id="DejaVuSans-65" d="M 3597 1894 
L 3597 1613 
L 953 1613 
Q 991 1019 1311 708 
Q 1631 397 2203 397 
Q 2534 397 2845 478 
Q 3156 559 3463 722 
L 3463 178 
Q 3153 47 2828 -22 
Q 2503 -91 2169 -91 
Q 1331 -91 842 396 
Q 353 884 353 1716 
Q 353 2575 817 3079 
Q 1281 3584 2069 3584 
Q 2775 3584 3186 3129 
Q 3597 2675 3597 1894 
z
M 3022 2063 
Q 3016 2534 2758 2815 
Q 2500 3097 2075 3097 
Q 1594 3097 1305 2825 
Q 1016 2553 972 2059 
L 3022 2063 
z
" transform="scale(0.015625)"/>
      </defs>
      <use xlink:href="#DejaVuSans-56"/>
      <use xlink:href="#DejaVuSans-6f" x="60.658203"/>
      <use xlink:href="#DejaVuSans-6c" x="121.839844"/>
      <use xlink:href="#DejaVuSans-75" x="149.623047"/>
      <use xlink:href="#DejaVuSans-6d" x="213.001953"/>
      <use xlink:href="#DejaVuSans-65" x="310.414062"/>
     </g>
    </g>
   </g>
   <g id="matplotlib.axis_2">
    <g id="ytick_1">
     <g id="line2d_6">
      <defs>
       <path id="m85978d0b53" d="M 0 0 
L -3.5 0 
" style="stroke: #000000; stroke-width: 0.8"/>
      </defs>
      <g>
       <use xlink:href="#m85978d0b53" x="58.34" y="305.8" style="stroke: #000000; stroke-width: 0.8"/>
      </g>
     </g>
     <g id="text_7">
      <!-- 0 -->
      <g transform="translate(42.4325 311.118906) scale(0.14 -0.14)">
       <use xlink:href="#DejaVuSans-30"/>
      </g>
     </g>
    </g>
    <g id="ytick_2">
     <g id="line2d_7">
      <g>
       <use xlink:href="#m85978d0b53" x="58.34" y="250.432381" style="stroke: #000000; stroke-width: 0.8"/>
      </g>
     </g>
     <g id="text_8">
      <!-- 10 -->
      <g transform="translate(33.525 255.751287) scale(0.14 -0.14)">
       <use xlink:href="#DejaVuSans-31"/>
       <use xlink:href="#DejaVuSans-30" x="63.623047"/>
      </g>
     </g>
    </g>
    <g id="ytick_3">
     <g id="line2d_8">
      <g>
       <use xlink:href="#m85978d0b53" x="58.34" y="195.064762" style="stroke: #000000; stroke-width: 0.8"/>
      </g>
     </g>
     <g id="text_9">
      <!-- 20 -->
      <g transform="translate(33.525 200.383668) scale(0.14 -0.14)">
       <use xlink:href="#DejaVuSans-32"/>
       <use xlink:href="#DejaVuSans-30" x="63.623047"/>
      </g>
     </g>
    </g>
    <g id="ytick_4">
     <g id="line2d_9">
      <g>
       <use xlink:href="#m85978d0b53" x="58.34" y="139.697143" style="stroke: #000000; stroke-width: 0.8"/>
      </g>
     </g>
     <g id="text_10">
      <!-- 30 -->
      <g transform="translate(33.525 145.016049) scale(0.14 -0.14)">
       <defs>
        <path id="DejaVuSans-33" d="M 2597 2516 
Q 3050 2419 3304 2112 
Q 3559 1806 3559 1356 
Q 3559 666 3084 287 
Q 2609 -91 1734 -91 
Q 1441 -91 1130 -33 
Q 819 25 488 141 
L 488 750 
Q 750 597 1062 519 
Q 1375 441 1716 441 
Q 2309 441 2620 675 
Q 2931 909 2931 1356 
Q 2931 1769 2642 2001 
Q 2353 2234 1838 2234 
L 1294 2234 
L 1294 2753 
L 1863 2753 
Q 2328 2753 2575 2939 
Q 2822 3125 2822 3475 
Q 2822 3834 2567 4026 
Q 2313 4219 1838 4219 
Q 1578 4219 1281 4162 
Q 984 4106 628 3988 
L 628 4550 
Q 988 4650 1302 4700 
Q 1616 4750 1894 4750 
Q 2613 4750 3031 4423 
Q 3450 4097 3450 3541 
Q 3450 3153 3228 2886 
Q 3006 2619 2597 2516 
z
" transform="scale(0.015625)"/>
       </defs>
       <use xlink:href="#DejaVuSans-33"/>
       <use xlink:href="#DejaVuSans-30" x="63.623047"/>
      </g>
     </g>
    </g>
    <g id="ytick_5">
     <g id="line2d_10">
      <g>
       <use xlink:href="#m85978d0b53" x="58.34" y="84.329524" style="stroke: #000000; stroke-width: 0.8"/>
      </g>
     </g>
     <g id="text_11">
      <!-- 40 -->
      <g transform="translate(33.525 89.64843) scale(0.14 -0.14)">
       <defs>
        <path id="DejaVuSans-34" d="M 2419 4116 
L 825 1625 
L 2419 1625 
L 2419 4116 
z
M 2253 4666 
L 3047 4666 
L 3047 1625 
L 3713 1625 
L 3713 1100 
L 3047 1100 
L 3047 0 
L 2419 0 
L 2419 1100 
L 313 1100 
L 313 1709 
L 2253 4666 
z
" transform="scale(0.015625)"/>
       </defs>
       <use xlink:href="#DejaVuSans-34"/>
       <use xlink:href="#DejaVuSans-30" x="63.623047"/>
      </g>
     </g>
    </g>
    <g id="ytick_6">
     <g id="line2d_11">
      <g>
       <use xlink:href="#m85978d0b53" x="58.34" y="28.961905" style="stroke: #000000; stroke-width: 0.8"/>
      </g>
     </g>
     <g id="text_12">
      <!-- 50 -->
      <g transform="translate(33.525 34.280811) scale(0.14 -0.14)">
       <use xlink:href="#DejaVuSans-35"/>
       <use xlink:href="#DejaVuSans-30" x="63.623047"/>
      </g>
     </g>
    </g>
    <g id="text_13">
     <!-- Count -->
     <g transform="translate(26.1975 184.2175) rotate(-90) scale(0.16 -0.16)">
      <defs>
       <path id="DejaVuSans-43" d="M 4122 4306 
L 4122 3641 
Q 3803 3938 3442 4084 
Q 3081 4231 2675 4231 
Q 1875 4231 1450 3742 
Q 1025 3253 1025 2328 
Q 1025 1406 1450 917 
Q 1875 428 2675 428 
Q 3081 428 3442 575 
Q 3803 722 4122 1019 
L 4122 359 
Q 3791 134 3420 21 
Q 3050 -91 2638 -91 
Q 1578 -91 968 557 
Q 359 1206 359 2328 
Q 359 3453 968 4101 
Q 1578 4750 2638 4750 
Q 3056 4750 3426 4639 
Q 3797 4528 4122 4306 
z
" transform="scale(0.015625)"/>
       <path id="DejaVuSans-6e" d="M 3513 2113 
L 3513 0 
L 2938 0 
L 2938 2094 
Q 2938 2591 2744 2837 
Q 2550 3084 2163 3084 
Q 1697 3084 1428 2787 
Q 1159 2491 1159 1978 
L 1159 0 
L 581 0 
L 581 3500 
L 1159 3500 
L 1159 2956 
Q 1366 3272 1645 3428 
Q 1925 3584 2291 3584 
Q 2894 3584 3203 3211 
Q 3513 2838 3513 2113 
z
" transform="scale(0.015625)"/>
       <path id="DejaVuSans-74" d="M 1172 4494 
L 1172 3500 
L 2356 3500 
L 2356 3053 
L 1172 3053 
L 1172 1153 
Q 1172 725 1289 603 
Q 1406 481 1766 481 
L 2356 481 
L 2356 0 
L 1766 0 
Q 1100 0 847 248 
Q 594 497 594 1153 
L 594 3053 
L 172 3053 
L 172 3500 
L 594 3500 
L 594 4494 
L 1172 4494 
z
" transform="scale(0.015625)"/>
      </defs>
      <use xlink:href="#DejaVuSans-43"/>
      <use xlink:href="#DejaVuSans-6f" x="69.824219"/>
      <use xlink:href="#DejaVuSans-75" x="131.005859"/>
      <use xlink:href="#DejaVuSans-6e" x="194.384766"/>
      <use xlink:href="#DejaVuSans-74" x="257.763672"/>
     </g>
    </g>
   </g>
   <g id="patch_13">
    <path d="M 58.34 305.8 
L 58.34 15.12 
" style="fill: none; stroke: #000000; stroke-width: 0.8; stroke-linejoin: miter; stroke-linecap: square"/>
   </g>
   <g id="patch_14">
    <path d="M 364.93 305.8 
L 364.93 15.12 
" style="fill: none; stroke: #000000; stroke-width: 0.8; stroke-linejoin: miter; stroke-linecap: square"/>
   </g>
   <g id="patch_15">
    <path d="M 58.34 305.8 
L 364.93 305.8 
" style="fill: none; stroke: #000000; stroke-width: 0.8; stroke-linejoin: miter; stroke-linecap: square"/>
   </g>
   <g id="patch_16">
    <path d="M 58.34 15.12 
L 364.93 15.12 
" style="fill: none; stroke: #000000; stroke-width: 0.8; stroke-linejoin: miter; stroke-linecap: square"/>
   </g>
  </g>
  <g id="axes_2">
   <g id="matplotlib.axis_3">
    <g id="ytick_7">
     <g id="line2d_12">
      <defs>
       <path id="md45845fecd" d="M 0 0 
L 3.5 0 
" style="stroke: #000000; stroke-width: 0.8"/>
      </defs>
      <g>
       <use xlink:href="#md45845fecd" x="364.93" y="305.8" style="stroke: #000000; stroke-width: 0.8"/>
      </g>
     </g>
     <g id="text_14">
      <!-- 0 -->
      <g transform="translate(371.93 311.118906) scale(0.14 -0.14)">
       <use xlink:href="#DejaVuSans-30"/>
      </g>
     </g>
    </g>
    <g id="ytick_8">
     <g id="line2d_13">
      <g>
       <use xlink:href="#md45845fecd" x="364.93" y="250.432381" style="stroke: #000000; stroke-width: 0.8"/>
      </g>
     </g>
     <g id="text_15">
      <!-- 20 -->
      <g transform="translate(371.93 255.751287) scale(0.14 -0.14)">
       <use xlink:href="#DejaVuSans-32"/>
       <use xlink:href="#DejaVuSans-30" x="63.623047"/>
      </g>
     </g>
    </g>
    <g id="ytick_9">
     <g id="line2d_14">
      <g>
       <use xlink:href="#md45845fecd" x="364.93" y="195.064762" style="stroke: #000000; stroke-width: 0.8"/>
      </g>
     </g>
     <g id="text_16">
      <!-- 40 -->
      <g transform="translate(371.93 200.383668) scale(0.14 -0.14)">
       <use xlink:href="#DejaVuSans-34"/>
       <use xlink:href="#DejaVuSans-30" x="63.623047"/>
      </g>
     </g>
    </g>
    <g id="ytick_10">
     <g id="line2d_15">
      <g>
       <use xlink:href="#md45845fecd" x="364.93" y="139.697143" style="stroke: #000000; stroke-width: 0.8"/>
      </g>
     </g>
     <g id="text_17">
      <!-- 60 -->
      <g transform="translate(371.93 145.016049) scale(0.14 -0.14)">
       <defs>
        <path id="DejaVuSans-36" d="M 2113 2584 
Q 1688 2584 1439 2293 
Q 1191 2003 1191 1497 
Q 1191 994 1439 701 
Q 1688 409 2113 409 
Q 2538 409 2786 701 
Q 3034 994 3034 1497 
Q 3034 2003 2786 2293 
Q 2538 2584 2113 2584 
z
M 3366 4563 
L 3366 3988 
Q 3128 4100 2886 4159 
Q 2644 4219 2406 4219 
Q 1781 4219 1451 3797 
Q 1122 3375 1075 2522 
Q 1259 2794 1537 2939 
Q 1816 3084 2150 3084 
Q 2853 3084 3261 2657 
Q 3669 2231 3669 1497 
Q 3669 778 3244 343 
Q 2819 -91 2113 -91 
Q 1303 -91 875 529 
Q 447 1150 447 2328 
Q 447 3434 972 4092 
Q 1497 4750 2381 4750 
Q 2619 4750 2861 4703 
Q 3103 4656 3366 4563 
z
" transform="scale(0.015625)"/>
       </defs>
       <use xlink:href="#DejaVuSans-36"/>
       <use xlink:href="#DejaVuSans-30" x="63.623047"/>
      </g>
     </g>
    </g>
    <g id="ytick_11">
     <g id="line2d_16">
      <g>
       <use xlink:href="#md45845fecd" x="364.93" y="84.329524" style="stroke: #000000; stroke-width: 0.8"/>
      </g>
     </g>
     <g id="text_18">
      <!-- 80 -->
      <g transform="translate(371.93 89.64843) scale(0.14 -0.14)">
       <defs>
        <path id="DejaVuSans-38" d="M 2034 2216 
Q 1584 2216 1326 1975 
Q 1069 1734 1069 1313 
Q 1069 891 1326 650 
Q 1584 409 2034 409 
Q 2484 409 2743 651 
Q 3003 894 3003 1313 
Q 3003 1734 2745 1975 
Q 2488 2216 2034 2216 
z
M 1403 2484 
Q 997 2584 770 2862 
Q 544 3141 544 3541 
Q 544 4100 942 4425 
Q 1341 4750 2034 4750 
Q 2731 4750 3128 4425 
Q 3525 4100 3525 3541 
Q 3525 3141 3298 2862 
Q 3072 2584 2669 2484 
Q 3125 2378 3379 2068 
Q 3634 1759 3634 1313 
Q 3634 634 3220 271 
Q 2806 -91 2034 -91 
Q 1263 -91 848 271 
Q 434 634 434 1313 
Q 434 1759 690 2068 
Q 947 2378 1403 2484 
z
M 1172 3481 
Q 1172 3119 1398 2916 
Q 1625 2713 2034 2713 
Q 2441 2713 2670 2916 
Q 2900 3119 2900 3481 
Q 2900 3844 2670 4047 
Q 2441 4250 2034 4250 
Q 1625 4250 1398 4047 
Q 1172 3844 1172 3481 
z
" transform="scale(0.015625)"/>
       </defs>
       <use xlink:href="#DejaVuSans-38"/>
       <use xlink:href="#DejaVuSans-30" x="63.623047"/>
      </g>
     </g>
    </g>
    <g id="ytick_12">
     <g id="line2d_17">
      <g>
       <use xlink:href="#md45845fecd" x="364.93" y="28.961905" style="stroke: #000000; stroke-width: 0.8"/>
      </g>
     </g>
     <g id="text_19">
      <!-- 100 -->
      <g transform="translate(371.93 34.280811) scale(0.14 -0.14)">
       <use xlink:href="#DejaVuSans-31"/>
       <use xlink:href="#DejaVuSans-30" x="63.623047"/>
       <use xlink:href="#DejaVuSans-30" x="127.246094"/>
      </g>
     </g>
    </g>
    <g id="text_20">
     <!-- Cumulative Count (Percentage) -->
     <g style="fill: #ff0000" transform="translate(414.81 286.20125) rotate(-90) scale(0.16 -0.16)">
      <defs>
       <path id="DejaVuSans-61" d="M 2194 1759 
Q 1497 1759 1228 1600 
Q 959 1441 959 1056 
Q 959 750 1161 570 
Q 1363 391 1709 391 
Q 2188 391 2477 730 
Q 2766 1069 2766 1631 
L 2766 1759 
L 2194 1759 
z
M 3341 1997 
L 3341 0 
L 2766 0 
L 2766 531 
Q 2569 213 2275 61 
Q 1981 -91 1556 -91 
Q 1019 -91 701 211 
Q 384 513 384 1019 
Q 384 1609 779 1909 
Q 1175 2209 1959 2209 
L 2766 2209 
L 2766 2266 
Q 2766 2663 2505 2880 
Q 2244 3097 1772 3097 
Q 1472 3097 1187 3025 
Q 903 2953 641 2809 
L 641 3341 
Q 956 3463 1253 3523 
Q 1550 3584 1831 3584 
Q 2591 3584 2966 3190 
Q 3341 2797 3341 1997 
z
" transform="scale(0.015625)"/>
       <path id="DejaVuSans-69" d="M 603 3500 
L 1178 3500 
L 1178 0 
L 603 0 
L 603 3500 
z
M 603 4863 
L 1178 4863 
L 1178 4134 
L 603 4134 
L 603 4863 
z
" transform="scale(0.015625)"/>
       <path id="DejaVuSans-76" d="M 191 3500 
L 800 3500 
L 1894 563 
L 2988 3500 
L 3597 3500 
L 2284 0 
L 1503 0 
L 191 3500 
z
" transform="scale(0.015625)"/>
       <path id="DejaVuSans-20" transform="scale(0.015625)"/>
       <path id="DejaVuSans-28" d="M 1984 4856 
Q 1566 4138 1362 3434 
Q 1159 2731 1159 2009 
Q 1159 1288 1364 580 
Q 1569 -128 1984 -844 
L 1484 -844 
Q 1016 -109 783 600 
Q 550 1309 550 2009 
Q 550 2706 781 3412 
Q 1013 4119 1484 4856 
L 1984 4856 
z
" transform="scale(0.015625)"/>
       <path id="DejaVuSans-50" d="M 1259 4147 
L 1259 2394 
L 2053 2394 
Q 2494 2394 2734 2622 
Q 2975 2850 2975 3272 
Q 2975 3691 2734 3919 
Q 2494 4147 2053 4147 
L 1259 4147 
z
M 628 4666 
L 2053 4666 
Q 2838 4666 3239 4311 
Q 3641 3956 3641 3272 
Q 3641 2581 3239 2228 
Q 2838 1875 2053 1875 
L 1259 1875 
L 1259 0 
L 628 0 
L 628 4666 
z
" transform="scale(0.015625)"/>
       <path id="DejaVuSans-72" d="M 2631 2963 
Q 2534 3019 2420 3045 
Q 2306 3072 2169 3072 
Q 1681 3072 1420 2755 
Q 1159 2438 1159 1844 
L 1159 0 
L 581 0 
L 581 3500 
L 1159 3500 
L 1159 2956 
Q 1341 3275 1631 3429 
Q 1922 3584 2338 3584 
Q 2397 3584 2469 3576 
Q 2541 3569 2628 3553 
L 2631 2963 
z
" transform="scale(0.015625)"/>
       <path id="DejaVuSans-63" d="M 3122 3366 
L 3122 2828 
Q 2878 2963 2633 3030 
Q 2388 3097 2138 3097 
Q 1578 3097 1268 2742 
Q 959 2388 959 1747 
Q 959 1106 1268 751 
Q 1578 397 2138 397 
Q 2388 397 2633 464 
Q 2878 531 3122 666 
L 3122 134 
Q 2881 22 2623 -34 
Q 2366 -91 2075 -91 
Q 1284 -91 818 406 
Q 353 903 353 1747 
Q 353 2603 823 3093 
Q 1294 3584 2113 3584 
Q 2378 3584 2631 3529 
Q 2884 3475 3122 3366 
z
" transform="scale(0.015625)"/>
       <path id="DejaVuSans-67" d="M 2906 1791 
Q 2906 2416 2648 2759 
Q 2391 3103 1925 3103 
Q 1463 3103 1205 2759 
Q 947 2416 947 1791 
Q 947 1169 1205 825 
Q 1463 481 1925 481 
Q 2391 481 2648 825 
Q 2906 1169 2906 1791 
z
M 3481 434 
Q 3481 -459 3084 -895 
Q 2688 -1331 1869 -1331 
Q 1566 -1331 1297 -1286 
Q 1028 -1241 775 -1147 
L 775 -588 
Q 1028 -725 1275 -790 
Q 1522 -856 1778 -856 
Q 2344 -856 2625 -561 
Q 2906 -266 2906 331 
L 2906 616 
Q 2728 306 2450 153 
Q 2172 0 1784 0 
Q 1141 0 747 490 
Q 353 981 353 1791 
Q 353 2603 747 3093 
Q 1141 3584 1784 3584 
Q 2172 3584 2450 3431 
Q 2728 3278 2906 2969 
L 2906 3500 
L 3481 3500 
L 3481 434 
z
" transform="scale(0.015625)"/>
       <path id="DejaVuSans-29" d="M 513 4856 
L 1013 4856 
Q 1481 4119 1714 3412 
Q 1947 2706 1947 2009 
Q 1947 1309 1714 600 
Q 1481 -109 1013 -844 
L 513 -844 
Q 928 -128 1133 580 
Q 1338 1288 1338 2009 
Q 1338 2731 1133 3434 
Q 928 4138 513 4856 
z
" transform="scale(0.015625)"/>
      </defs>
      <use xlink:href="#DejaVuSans-43"/>
      <use xlink:href="#DejaVuSans-75" x="69.824219"/>
      <use xlink:href="#DejaVuSans-6d" x="133.203125"/>
      <use xlink:href="#DejaVuSans-75" x="230.615234"/>
      <use xlink:href="#DejaVuSans-6c" x="293.994141"/>
      <use xlink:href="#DejaVuSans-61" x="321.777344"/>
      <use xlink:href="#DejaVuSans-74" x="383.056641"/>
      <use xlink:href="#DejaVuSans-69" x="422.265625"/>
      <use xlink:href="#DejaVuSans-76" x="450.048828"/>
      <use xlink:href="#DejaVuSans-65" x="509.228516"/>
      <use xlink:href="#DejaVuSans-20" x="570.751953"/>
      <use xlink:href="#DejaVuSans-43" x="602.539062"/>
      <use xlink:href="#DejaVuSans-6f" x="672.363281"/>
      <use xlink:href="#DejaVuSans-75" x="733.544922"/>
      <use xlink:href="#DejaVuSans-6e" x="796.923828"/>
      <use xlink:href="#DejaVuSans-74" x="860.302734"/>
      <use xlink:href="#DejaVuSans-20" x="899.511719"/>
      <use xlink:href="#DejaVuSans-28" x="931.298828"/>
      <use xlink:href="#DejaVuSans-50" x="970.3125"/>
      <use xlink:href="#DejaVuSans-65" x="1026.990234"/>
      <use xlink:href="#DejaVuSans-72" x="1088.513672"/>
      <use xlink:href="#DejaVuSans-63" x="1127.376953"/>
      <use xlink:href="#DejaVuSans-65" x="1182.357422"/>
      <use xlink:href="#DejaVuSans-6e" x="1243.880859"/>
      <use xlink:href="#DejaVuSans-74" x="1307.259766"/>
      <use xlink:href="#DejaVuSans-61" x="1346.46875"/>
      <use xlink:href="#DejaVuSans-67" x="1407.748047"/>
      <use xlink:href="#DejaVuSans-65" x="1471.224609"/>
      <use xlink:href="#DejaVuSans-29" x="1532.748047"/>
     </g>
    </g>
   </g>
   <g id="line2d_18">
    <path d="M 72.275909 304.41581 
L 83.889167 303.031619 
L 102.470379 301.647429 
L 107.115682 300.263238 
L 109.438333 298.879048 
L 121.051591 296.110667 
L 122.212917 294.726476 
L 125.696894 293.342286 
L 126.85822 291.958095 
L 128.019545 290.573905 
L 129.180871 289.189714 
L 130.342197 287.805524 
L 132.664848 285.037143 
L 133.826174 283.652952 
L 136.148826 280.884571 
L 138.471477 279.500381 
L 139.632803 275.34781 
L 140.794129 272.579429 
L 141.955455 271.195238 
L 143.11678 269.811048 
L 144.278106 268.426857 
L 145.439432 267.042667 
L 146.600758 262.890095 
L 148.923409 258.737524 
L 150.084735 257.353333 
L 152.407386 254.584952 
L 153.568712 251.816571 
L 154.730038 250.432381 
L 157.052689 249.04819 
L 158.214015 246.27981 
L 159.375341 244.895619 
L 160.536667 240.743048 
L 162.859318 231.053714 
L 164.020644 229.669524 
L 165.18197 226.901143 
L 168.665947 222.748571 
L 170.988598 218.596 
L 172.149924 213.059238 
L 173.31125 211.675048 
L 174.472576 206.138286 
L 176.795227 203.369905 
L 177.956553 200.601524 
L 180.279205 196.448952 
L 181.44053 195.064762 
L 182.601856 190.91219 
L 183.763182 186.759619 
L 186.085833 181.222857 
L 187.247159 177.070286 
L 188.408485 175.686095 
L 189.569811 172.917714 
L 190.731136 167.380952 
L 193.053788 161.84419 
L 194.215114 160.46 
L 195.376439 157.691619 
L 196.537765 156.307429 
L 197.699091 148.002286 
L 198.860417 143.849714 
L 200.021742 142.465524 
L 202.344394 138.312952 
L 203.50572 134.160381 
L 204.667045 132.77619 
L 206.989697 130.00781 
L 208.151023 128.623619 
L 209.312348 125.855238 
L 210.473674 121.702667 
L 211.635 118.934286 
L 212.796326 117.550095 
L 213.957652 116.165905 
L 216.280303 114.781714 
L 218.602955 113.397524 
L 219.76428 107.860762 
L 220.925606 105.092381 
L 222.086932 103.70819 
L 223.248258 96.787238 
L 224.409583 95.403048 
L 225.570909 92.634667 
L 227.893561 87.097905 
L 230.216212 84.329524 
L 233.700189 82.945333 
L 234.861515 81.561143 
L 236.022841 80.176952 
L 237.184167 78.792762 
L 238.345492 76.024381 
L 240.668144 74.64019 
L 244.152121 71.87181 
L 245.313447 69.103429 
L 246.474773 67.719238 
L 247.636098 66.335048 
L 248.797424 64.950857 
L 252.281402 63.566667 
L 253.442727 60.798286 
L 254.604053 58.029905 
L 255.765379 55.261524 
L 256.926705 53.877333 
L 258.08803 52.493143 
L 259.249356 49.724762 
L 262.733333 48.340571 
L 263.894659 46.956381 
L 268.539962 45.57219 
L 269.701288 44.188 
L 272.023939 42.80381 
L 275.507917 41.419619 
L 280.15322 40.035429 
L 282.475871 38.651238 
L 290.605152 37.267048 
L 296.41178 35.882857 
L 306.863712 34.498667 
L 308.025038 33.114476 
L 337.058182 31.730286 
L 342.864811 30.346095 
L 350.994091 28.961905 
" clip-path="url(#pf54aaa3f9d)" style="fill: none; stroke: #ff0000; stroke-width: 0.5; stroke-linecap: square"/>
    <defs>
     <path id="m12b2669d3c" d="M 0 2 
C 0.530406 2 1.03916 1.789267 1.414214 1.414214 
C 1.789267 1.03916 2 0.530406 2 0 
C 2 -0.530406 1.789267 -1.03916 1.414214 -1.414214 
C 1.03916 -1.789267 0.530406 -2 0 -2 
C -0.530406 -2 -1.03916 -1.789267 -1.414214 -1.414214 
C -1.789267 -1.03916 -2 -0.530406 -2 0 
C -2 0.530406 -1.789267 1.03916 -1.414214 1.414214 
C -1.03916 1.789267 -0.530406 2 0 2 
z
" style="stroke: #ff0000"/>
    </defs>
    <g clip-path="url(#pf54aaa3f9d)">
     <use xlink:href="#m12b2669d3c" x="72.275909" y="304.41581" style="fill-opacity: 0; stroke: #ff0000"/>
     <use xlink:href="#m12b2669d3c" x="83.889167" y="303.031619" style="fill-opacity: 0; stroke: #ff0000"/>
     <use xlink:href="#m12b2669d3c" x="102.470379" y="301.647429" style="fill-opacity: 0; stroke: #ff0000"/>
     <use xlink:href="#m12b2669d3c" x="107.115682" y="300.263238" style="fill-opacity: 0; stroke: #ff0000"/>
     <use xlink:href="#m12b2669d3c" x="109.438333" y="298.879048" style="fill-opacity: 0; stroke: #ff0000"/>
     <use xlink:href="#m12b2669d3c" x="121.051591" y="296.110667" style="fill-opacity: 0; stroke: #ff0000"/>
     <use xlink:href="#m12b2669d3c" x="122.212917" y="294.726476" style="fill-opacity: 0; stroke: #ff0000"/>
     <use xlink:href="#m12b2669d3c" x="125.696894" y="293.342286" style="fill-opacity: 0; stroke: #ff0000"/>
     <use xlink:href="#m12b2669d3c" x="126.85822" y="291.958095" style="fill-opacity: 0; stroke: #ff0000"/>
     <use xlink:href="#m12b2669d3c" x="128.019545" y="290.573905" style="fill-opacity: 0; stroke: #ff0000"/>
     <use xlink:href="#m12b2669d3c" x="129.180871" y="289.189714" style="fill-opacity: 0; stroke: #ff0000"/>
     <use xlink:href="#m12b2669d3c" x="130.342197" y="287.805524" style="fill-opacity: 0; stroke: #ff0000"/>
     <use xlink:href="#m12b2669d3c" x="132.664848" y="285.037143" style="fill-opacity: 0; stroke: #ff0000"/>
     <use xlink:href="#m12b2669d3c" x="133.826174" y="283.652952" style="fill-opacity: 0; stroke: #ff0000"/>
     <use xlink:href="#m12b2669d3c" x="136.148826" y="280.884571" style="fill-opacity: 0; stroke: #ff0000"/>
     <use xlink:href="#m12b2669d3c" x="138.471477" y="279.500381" style="fill-opacity: 0; stroke: #ff0000"/>
     <use xlink:href="#m12b2669d3c" x="139.632803" y="275.34781" style="fill-opacity: 0; stroke: #ff0000"/>
     <use xlink:href="#m12b2669d3c" x="140.794129" y="272.579429" style="fill-opacity: 0; stroke: #ff0000"/>
     <use xlink:href="#m12b2669d3c" x="141.955455" y="271.195238" style="fill-opacity: 0; stroke: #ff0000"/>
     <use xlink:href="#m12b2669d3c" x="143.11678" y="269.811048" style="fill-opacity: 0; stroke: #ff0000"/>
     <use xlink:href="#m12b2669d3c" x="144.278106" y="268.426857" style="fill-opacity: 0; stroke: #ff0000"/>
     <use xlink:href="#m12b2669d3c" x="145.439432" y="267.042667" style="fill-opacity: 0; stroke: #ff0000"/>
     <use xlink:href="#m12b2669d3c" x="146.600758" y="262.890095" style="fill-opacity: 0; stroke: #ff0000"/>
     <use xlink:href="#m12b2669d3c" x="148.923409" y="258.737524" style="fill-opacity: 0; stroke: #ff0000"/>
     <use xlink:href="#m12b2669d3c" x="150.084735" y="257.353333" style="fill-opacity: 0; stroke: #ff0000"/>
     <use xlink:href="#m12b2669d3c" x="152.407386" y="254.584952" style="fill-opacity: 0; stroke: #ff0000"/>
     <use xlink:href="#m12b2669d3c" x="153.568712" y="251.816571" style="fill-opacity: 0; stroke: #ff0000"/>
     <use xlink:href="#m12b2669d3c" x="154.730038" y="250.432381" style="fill-opacity: 0; stroke: #ff0000"/>
     <use xlink:href="#m12b2669d3c" x="157.052689" y="249.04819" style="fill-opacity: 0; stroke: #ff0000"/>
     <use xlink:href="#m12b2669d3c" x="158.214015" y="246.27981" style="fill-opacity: 0; stroke: #ff0000"/>
     <use xlink:href="#m12b2669d3c" x="159.375341" y="244.895619" style="fill-opacity: 0; stroke: #ff0000"/>
     <use xlink:href="#m12b2669d3c" x="160.536667" y="240.743048" style="fill-opacity: 0; stroke: #ff0000"/>
     <use xlink:href="#m12b2669d3c" x="162.859318" y="231.053714" style="fill-opacity: 0; stroke: #ff0000"/>
     <use xlink:href="#m12b2669d3c" x="164.020644" y="229.669524" style="fill-opacity: 0; stroke: #ff0000"/>
     <use xlink:href="#m12b2669d3c" x="165.18197" y="226.901143" style="fill-opacity: 0; stroke: #ff0000"/>
     <use xlink:href="#m12b2669d3c" x="168.665947" y="222.748571" style="fill-opacity: 0; stroke: #ff0000"/>
     <use xlink:href="#m12b2669d3c" x="170.988598" y="218.596" style="fill-opacity: 0; stroke: #ff0000"/>
     <use xlink:href="#m12b2669d3c" x="172.149924" y="213.059238" style="fill-opacity: 0; stroke: #ff0000"/>
     <use xlink:href="#m12b2669d3c" x="173.31125" y="211.675048" style="fill-opacity: 0; stroke: #ff0000"/>
     <use xlink:href="#m12b2669d3c" x="174.472576" y="206.138286" style="fill-opacity: 0; stroke: #ff0000"/>
     <use xlink:href="#m12b2669d3c" x="176.795227" y="203.369905" style="fill-opacity: 0; stroke: #ff0000"/>
     <use xlink:href="#m12b2669d3c" x="177.956553" y="200.601524" style="fill-opacity: 0; stroke: #ff0000"/>
     <use xlink:href="#m12b2669d3c" x="180.279205" y="196.448952" style="fill-opacity: 0; stroke: #ff0000"/>
     <use xlink:href="#m12b2669d3c" x="181.44053" y="195.064762" style="fill-opacity: 0; stroke: #ff0000"/>
     <use xlink:href="#m12b2669d3c" x="182.601856" y="190.91219" style="fill-opacity: 0; stroke: #ff0000"/>
     <use xlink:href="#m12b2669d3c" x="183.763182" y="186.759619" style="fill-opacity: 0; stroke: #ff0000"/>
     <use xlink:href="#m12b2669d3c" x="186.085833" y="181.222857" style="fill-opacity: 0; stroke: #ff0000"/>
     <use xlink:href="#m12b2669d3c" x="187.247159" y="177.070286" style="fill-opacity: 0; stroke: #ff0000"/>
     <use xlink:href="#m12b2669d3c" x="188.408485" y="175.686095" style="fill-opacity: 0; stroke: #ff0000"/>
     <use xlink:href="#m12b2669d3c" x="189.569811" y="172.917714" style="fill-opacity: 0; stroke: #ff0000"/>
     <use xlink:href="#m12b2669d3c" x="190.731136" y="167.380952" style="fill-opacity: 0; stroke: #ff0000"/>
     <use xlink:href="#m12b2669d3c" x="193.053788" y="161.84419" style="fill-opacity: 0; stroke: #ff0000"/>
     <use xlink:href="#m12b2669d3c" x="194.215114" y="160.46" style="fill-opacity: 0; stroke: #ff0000"/>
     <use xlink:href="#m12b2669d3c" x="195.376439" y="157.691619" style="fill-opacity: 0; stroke: #ff0000"/>
     <use xlink:href="#m12b2669d3c" x="196.537765" y="156.307429" style="fill-opacity: 0; stroke: #ff0000"/>
     <use xlink:href="#m12b2669d3c" x="197.699091" y="148.002286" style="fill-opacity: 0; stroke: #ff0000"/>
     <use xlink:href="#m12b2669d3c" x="198.860417" y="143.849714" style="fill-opacity: 0; stroke: #ff0000"/>
     <use xlink:href="#m12b2669d3c" x="200.021742" y="142.465524" style="fill-opacity: 0; stroke: #ff0000"/>
     <use xlink:href="#m12b2669d3c" x="202.344394" y="138.312952" style="fill-opacity: 0; stroke: #ff0000"/>
     <use xlink:href="#m12b2669d3c" x="203.50572" y="134.160381" style="fill-opacity: 0; stroke: #ff0000"/>
     <use xlink:href="#m12b2669d3c" x="204.667045" y="132.77619" style="fill-opacity: 0; stroke: #ff0000"/>
     <use xlink:href="#m12b2669d3c" x="206.989697" y="130.00781" style="fill-opacity: 0; stroke: #ff0000"/>
     <use xlink:href="#m12b2669d3c" x="208.151023" y="128.623619" style="fill-opacity: 0; stroke: #ff0000"/>
     <use xlink:href="#m12b2669d3c" x="209.312348" y="125.855238" style="fill-opacity: 0; stroke: #ff0000"/>
     <use xlink:href="#m12b2669d3c" x="210.473674" y="121.702667" style="fill-opacity: 0; stroke: #ff0000"/>
     <use xlink:href="#m12b2669d3c" x="211.635" y="118.934286" style="fill-opacity: 0; stroke: #ff0000"/>
     <use xlink:href="#m12b2669d3c" x="212.796326" y="117.550095" style="fill-opacity: 0; stroke: #ff0000"/>
     <use xlink:href="#m12b2669d3c" x="213.957652" y="116.165905" style="fill-opacity: 0; stroke: #ff0000"/>
     <use xlink:href="#m12b2669d3c" x="216.280303" y="114.781714" style="fill-opacity: 0; stroke: #ff0000"/>
     <use xlink:href="#m12b2669d3c" x="218.602955" y="113.397524" style="fill-opacity: 0; stroke: #ff0000"/>
     <use xlink:href="#m12b2669d3c" x="219.76428" y="107.860762" style="fill-opacity: 0; stroke: #ff0000"/>
     <use xlink:href="#m12b2669d3c" x="220.925606" y="105.092381" style="fill-opacity: 0; stroke: #ff0000"/>
     <use xlink:href="#m12b2669d3c" x="222.086932" y="103.70819" style="fill-opacity: 0; stroke: #ff0000"/>
     <use xlink:href="#m12b2669d3c" x="223.248258" y="96.787238" style="fill-opacity: 0; stroke: #ff0000"/>
     <use xlink:href="#m12b2669d3c" x="224.409583" y="95.403048" style="fill-opacity: 0; stroke: #ff0000"/>
     <use xlink:href="#m12b2669d3c" x="225.570909" y="92.634667" style="fill-opacity: 0; stroke: #ff0000"/>
     <use xlink:href="#m12b2669d3c" x="227.893561" y="87.097905" style="fill-opacity: 0; stroke: #ff0000"/>
     <use xlink:href="#m12b2669d3c" x="230.216212" y="84.329524" style="fill-opacity: 0; stroke: #ff0000"/>
     <use xlink:href="#m12b2669d3c" x="233.700189" y="82.945333" style="fill-opacity: 0; stroke: #ff0000"/>
     <use xlink:href="#m12b2669d3c" x="234.861515" y="81.561143" style="fill-opacity: 0; stroke: #ff0000"/>
     <use xlink:href="#m12b2669d3c" x="236.022841" y="80.176952" style="fill-opacity: 0; stroke: #ff0000"/>
     <use xlink:href="#m12b2669d3c" x="237.184167" y="78.792762" style="fill-opacity: 0; stroke: #ff0000"/>
     <use xlink:href="#m12b2669d3c" x="238.345492" y="76.024381" style="fill-opacity: 0; stroke: #ff0000"/>
     <use xlink:href="#m12b2669d3c" x="240.668144" y="74.64019" style="fill-opacity: 0; stroke: #ff0000"/>
     <use xlink:href="#m12b2669d3c" x="244.152121" y="71.87181" style="fill-opacity: 0; stroke: #ff0000"/>
     <use xlink:href="#m12b2669d3c" x="245.313447" y="69.103429" style="fill-opacity: 0; stroke: #ff0000"/>
     <use xlink:href="#m12b2669d3c" x="246.474773" y="67.719238" style="fill-opacity: 0; stroke: #ff0000"/>
     <use xlink:href="#m12b2669d3c" x="247.636098" y="66.335048" style="fill-opacity: 0; stroke: #ff0000"/>
     <use xlink:href="#m12b2669d3c" x="248.797424" y="64.950857" style="fill-opacity: 0; stroke: #ff0000"/>
     <use xlink:href="#m12b2669d3c" x="252.281402" y="63.566667" style="fill-opacity: 0; stroke: #ff0000"/>
     <use xlink:href="#m12b2669d3c" x="253.442727" y="60.798286" style="fill-opacity: 0; stroke: #ff0000"/>
     <use xlink:href="#m12b2669d3c" x="254.604053" y="58.029905" style="fill-opacity: 0; stroke: #ff0000"/>
     <use xlink:href="#m12b2669d3c" x="255.765379" y="55.261524" style="fill-opacity: 0; stroke: #ff0000"/>
     <use xlink:href="#m12b2669d3c" x="256.926705" y="53.877333" style="fill-opacity: 0; stroke: #ff0000"/>
     <use xlink:href="#m12b2669d3c" x="258.08803" y="52.493143" style="fill-opacity: 0; stroke: #ff0000"/>
     <use xlink:href="#m12b2669d3c" x="259.249356" y="49.724762" style="fill-opacity: 0; stroke: #ff0000"/>
     <use xlink:href="#m12b2669d3c" x="262.733333" y="48.340571" style="fill-opacity: 0; stroke: #ff0000"/>
     <use xlink:href="#m12b2669d3c" x="263.894659" y="46.956381" style="fill-opacity: 0; stroke: #ff0000"/>
     <use xlink:href="#m12b2669d3c" x="268.539962" y="45.57219" style="fill-opacity: 0; stroke: #ff0000"/>
     <use xlink:href="#m12b2669d3c" x="269.701288" y="44.188" style="fill-opacity: 0; stroke: #ff0000"/>
     <use xlink:href="#m12b2669d3c" x="272.023939" y="42.80381" style="fill-opacity: 0; stroke: #ff0000"/>
     <use xlink:href="#m12b2669d3c" x="275.507917" y="41.419619" style="fill-opacity: 0; stroke: #ff0000"/>
     <use xlink:href="#m12b2669d3c" x="280.15322" y="40.035429" style="fill-opacity: 0; stroke: #ff0000"/>
     <use xlink:href="#m12b2669d3c" x="282.475871" y="38.651238" style="fill-opacity: 0; stroke: #ff0000"/>
     <use xlink:href="#m12b2669d3c" x="290.605152" y="37.267048" style="fill-opacity: 0; stroke: #ff0000"/>
     <use xlink:href="#m12b2669d3c" x="296.41178" y="35.882857" style="fill-opacity: 0; stroke: #ff0000"/>
     <use xlink:href="#m12b2669d3c" x="306.863712" y="34.498667" style="fill-opacity: 0; stroke: #ff0000"/>
     <use xlink:href="#m12b2669d3c" x="308.025038" y="33.114476" style="fill-opacity: 0; stroke: #ff0000"/>
     <use xlink:href="#m12b2669d3c" x="337.058182" y="31.730286" style="fill-opacity: 0; stroke: #ff0000"/>
     <use xlink:href="#m12b2669d3c" x="342.864811" y="30.346095" style="fill-opacity: 0; stroke: #ff0000"/>
     <use xlink:href="#m12b2669d3c" x="350.994091" y="28.961905" style="fill-opacity: 0; stroke: #ff0000"/>
    </g>
   </g>
   <g id="patch_17">
    <path d="M 58.34 305.8 
L 58.34 15.12 
" style="fill: none; stroke: #000000; stroke-width: 0.8; stroke-linejoin: miter; stroke-linecap: square"/>
   </g>
   <g id="patch_18">
    <path d="M 364.93 305.8 
L 364.93 15.12 
" style="fill: none; stroke: #000000; stroke-width: 0.8; stroke-linejoin: miter; stroke-linecap: square"/>
   </g>
   <g id="patch_19">
    <path d="M 58.34 305.8 
L 364.93 305.8 
" style="fill: none; stroke: #000000; stroke-width: 0.8; stroke-linejoin: miter; stroke-linecap: square"/>
   </g>
   <g id="patch_20">
    <path d="M 58.34 15.12 
L 364.93 15.12 
" style="fill: none; stroke: #000000; stroke-width: 0.8; stroke-linejoin: miter; stroke-linecap: square"/>
   </g>
  </g>
 </g>
 <defs>
  <clipPath id="pf54aaa3f9d">
   <rect x="58.34" y="15.12" width="306.59" height="290.68"/>
  </clipPath>
 </defs>
</svg>
